# xmcd CD database file
#
# Track frame offsets:
#	150
#	29414
#	46615
#	66757
#	94446
#	113129
#	129462
#	157541
#	182296
#	205432
#	237242
#	250849
#	268543
#	294553
#	325155
#
# Disc length: 4581 seconds
#
# Revision: 2
# Processed by: cddbd v1.5.2PL0 Copyright (c) Steve Scherf et al.
# Submitted via: CDex 1.51
#
DISCID=c911e30f
DTITLE=Al Cohn - Four Classic Albums Plus  [CD 2-2]
DYEAR=2009
DGENRE=Jazz
TTITLE0=It's A Wonderful World  .....  { Album ~ Al and Zoot - Al Cohn Quintet - 1957 }
TTITLE1=Brandy And Beer
TTITLE2=Two Funky People
TTITLE3=Chasing The Blues
TTITLE4=Halley's Comet
TTITLE5=You're A Lucky Guy
TTITLE6=The Wailing Boat
TTITLE7=Just You, Just Me
TTITLE8=Open Country  .....  { Album ~ Bob Brookmeyer featuring Al Cohn - 1954 }
TTITLE9=Jive At Five
TTITLE10=Skylark
TTITLE11=In The Mode
TTITLE12=Polka Dots And Moonbeams
TTITLE13=Not So Sleepy
TTITLE14=Love And The Weather
EXTD=YEAR: 2009
EXTT0=
EXTT1=
EXTT2=
EXTT3=
EXTT4=
EXTT5=
EXTT6=
EXTT7=
EXTT8=
EXTT9=
EXTT10=
EXTT11=
EXTT12=
EXTT13=
EXTT14=
PLAYORDER=
